<svg width="100" height="100" viewBox="0 0 100 100" fill="none" xmlns="http://www.w3.org/2000/svg">
<circle cx="50" cy="50" r="50" fill="#F5F4EE"/>
<path d="M26.2492 90.9858C21.5324 88.2626 18.9194 81.5806 19.5077 71.7792C20.086 62.1446 23.762 50.2937 30.5136 38.5996C37.2652 26.9055 45.6904 17.7965 53.745 12.4784C61.9392 7.06821 69.0324 5.99016 73.7492 8.7134C78.466 11.4366 81.079 18.1186 80.4906 27.92C79.9123 37.5546 76.2363 49.4055 69.4847 61.0996C62.7332 72.7937 54.308 81.9027 46.2533 87.2208C38.0592 92.631 30.966 93.7091 26.2492 90.9858Z" fill="#14130D" stroke="#F5F4EE" stroke-width="5"/>
<path d="M8.86379 73.7501C6.14055 69.0334 7.21861 61.9401 12.6288 53.746C17.9469 45.6914 27.0559 37.2662 38.75 30.5146C50.4441 23.763 62.295 20.087 71.9296 19.5087C81.731 18.9204 88.413 21.5334 91.1362 26.2501C93.8595 30.9669 92.7814 38.0602 87.3712 46.2543C82.0531 54.3089 72.9441 62.7341 61.25 69.4857C49.5559 76.2373 37.705 79.9133 28.0704 80.4916C18.269 81.0799 11.587 78.4669 8.86379 73.7501Z" fill="#14130D" stroke="#F5F4EE" stroke-width="5"/>
<path d="M97.5 49.8501C97.5 55.2966 93.0198 60.9005 84.2373 65.2917C75.6044 69.6082 63.5032 72.3501 50 72.3501C36.4968 72.3501 24.3956 69.6082 15.7627 65.2917C6.98024 60.9005 2.5 55.2966 2.5 49.8501C2.5 44.4036 6.98024 38.7997 15.7627 34.4085C24.3956 30.092 36.4968 27.3501 50 27.3501C63.5032 27.3501 75.6044 30.092 84.2373 34.4085C93.0198 38.7997 97.5 44.4036 97.5 49.8501Z" fill="#14130D" stroke="#F5F4EE" stroke-width="5"/>
</svg>
