<svg viewBox="0 0 601 100" fill="none" xmlns="http://www.w3.org/2000/svg">
<circle cx="50" cy="50" r="50" fill="#F5F4EE"/>
<path d="M26.2492 90.9858C21.5324 88.2626 18.9194 81.5806 19.5077 71.7792C20.086 62.1446 23.762 50.2937 30.5136 38.5996C37.2652 26.9055 45.6904 17.7965 53.745 12.4784C61.9392 7.06822 69.0324 5.99016 73.7492 8.7134C78.466 11.4366 81.079 18.1186 80.4906 27.92C79.9123 37.5546 76.2363 49.4055 69.4847 61.0996C62.7332 72.7937 54.308 81.9027 46.2533 87.2208C38.0592 92.631 30.966 93.7091 26.2492 90.9858Z" fill="#26282E" stroke="#F5F4EE" stroke-width="5"/>
<path d="M8.86379 73.7501C6.14055 69.0334 7.21861 61.9401 12.6288 53.746C17.9469 45.6914 27.0559 37.2662 38.75 30.5146C50.4441 23.763 62.295 20.087 71.9296 19.5087C81.731 18.9204 88.413 21.5334 91.1362 26.2501C93.8595 30.9669 92.7814 38.0602 87.3712 46.2543C82.0531 54.3089 72.9441 62.7341 61.25 69.4857C49.5559 76.2373 37.705 79.9133 28.0704 80.4916C18.269 81.0799 11.587 78.4669 8.86379 73.7501Z" fill="#26282E" stroke="#F5F4EE" stroke-width="5"/>
<path d="M97.5 49.8501C97.5 55.2966 93.0198 60.9005 84.2373 65.2917C75.6044 69.6082 63.5032 72.3501 50 72.3501C36.4968 72.3501 24.3956 69.6082 15.7627 65.2917C6.98024 60.9005 2.5 55.2966 2.5 49.8501C2.5 44.4036 6.98024 38.7997 15.7627 34.4085C24.3956 30.092 36.4968 27.3501 50 27.3501C63.5032 27.3501 75.6044 30.092 84.2373 34.4085C93.0198 38.7997 97.5 44.4036 97.5 49.8501Z" fill="#26282E" stroke="#F5F4EE" stroke-width="5"/>
<path d="M161.047 84.9688C154.328 84.9688 148.484 83.5156 143.516 80.6094C138.578 77.7031 134.75 73.625 132.031 68.375C129.344 63.0938 128 56.9219 128 49.8594C128 42.8906 129.328 36.7969 131.984 31.5781C134.641 26.3594 138.438 22.2969 143.375 19.3906C148.312 16.4844 154.188 15.0312 161 15.0312C168.656 15.0312 175.156 16.9531 180.5 20.7969C185.875 24.6094 189.406 30.1406 191.094 37.3906L176.375 40.8125C175.438 36.2812 173.609 32.8906 170.891 30.6406C168.203 28.3906 164.891 27.2656 160.953 27.2656C157.172 27.2656 153.953 28.2031 151.297 30.0781C148.672 31.9531 146.656 34.5938 145.25 38C143.875 41.375 143.188 45.375 143.188 50C143.188 54.625 143.891 58.6562 145.297 62.0938C146.703 65.5 148.719 68.1406 151.344 70.0156C153.969 71.8594 157.109 72.7812 160.766 72.7812C164.703 72.7812 168.016 71.6562 170.703 69.4062C173.391 67.1562 175.219 63.9844 176.188 59.8906L191.234 62.9375C189.422 70 185.844 75.4375 180.5 79.25C175.156 83.0625 168.672 84.9688 161.047 84.9688Z" fill="#F5F4EE"/>
<path d="M227 84.9688C221.969 84.9688 217.328 84.2031 213.078 82.6719C208.859 81.1406 205.344 78.7969 202.531 75.6406C199.75 72.4844 197.969 68.4844 197.188 63.6406L212.281 60.5938C212.531 64.8438 213.859 68.0156 216.266 70.1094C218.703 72.1719 222.172 73.2031 226.672 73.2031C229.641 73.2031 232 72.8125 233.75 72.0312C235.531 71.25 236.812 70.2188 237.594 68.9375C238.375 67.625 238.766 66.1875 238.766 64.625C238.766 62.125 237.828 60.2188 235.953 58.9062C234.109 57.5625 231.688 56.5938 228.688 56L221.891 54.6875C219.547 54.25 217.125 53.6562 214.625 52.9062C212.125 52.125 209.797 51.0312 207.641 49.625C205.516 48.1875 203.781 46.3281 202.438 44.0469C201.125 41.7344 200.469 38.8438 200.469 35.375C200.469 30.9688 201.594 27.25 203.844 24.2188C206.125 21.1875 209.203 18.9062 213.078 17.375C216.984 15.8125 221.406 15.0312 226.344 15.0312C231.156 15.0312 235.469 15.7656 239.281 17.2344C243.125 18.7031 246.297 20.8438 248.797 23.6562C251.297 26.4375 252.953 29.8438 253.766 33.875L238.953 36.9219C238.672 34.8594 238.094 33.0781 237.219 31.5781C236.375 30.0469 235.125 28.875 233.469 28.0625C231.812 27.2188 229.609 26.7969 226.859 26.7969C224.422 26.7969 222.359 27.125 220.672 27.7812C219.016 28.4375 217.75 29.3438 216.875 30.5C216.031 31.625 215.609 32.9531 215.609 34.4844C215.609 36.7031 216.672 38.4219 218.797 39.6406C220.953 40.8281 223.906 41.7812 227.656 42.5L234.641 43.9062C237.891 44.5312 241.016 45.5781 244.016 47.0469C247.016 48.4844 249.469 50.5469 251.375 53.2344C253.281 55.9219 254.234 59.4375 254.234 63.7812C254.234 68.3438 253.078 72.2031 250.766 75.3594C248.453 78.5156 245.25 80.9062 241.156 82.5312C237.094 84.1562 232.375 84.9688 227 84.9688Z" fill="#F5F4EE"/>
<path d="M257.281 83.75L281.562 48.6875L257.656 16.25H275.656L290.938 38.7031L305.141 16.25H322.766L299.891 49.1562L325.297 83.75H307.016L290.562 59.4688L275.094 83.75H257.281Z" fill="#F5F4EE"/>
<path d="M353.234 83.75V16.25H367.719V71.5156H400.25V83.75H353.234Z" fill="#F5F4EE"/>
<path d="M404.188 83.75L430.062 16.25H448.484L474.266 83.75H458.703L439.203 26.75L419.75 83.75H404.188ZM421.109 65.2812V53.7031H457.203V65.2812H421.109Z" fill="#F5F4EE"/>
<path d="M481.297 83.75V16.25H511.203C518.891 16.25 524.688 17.6562 528.594 20.4688C532.5 23.25 534.453 27.3125 534.453 32.6562C534.453 36.0938 533.75 38.8594 532.344 40.9531C530.938 43.0469 529.172 44.625 527.047 45.6875C524.922 46.7188 522.781 47.3906 520.625 47.7031L520.766 47.5156C525.641 48.2969 529.5 50.1562 532.344 53.0938C535.219 56 536.656 60.0312 536.656 65.1875C536.656 69.8438 535.547 73.5312 533.328 76.25C531.141 78.9688 528.234 80.9062 524.609 82.0625C520.984 83.1875 517.031 83.75 512.75 83.75H481.297ZM495.781 72.5H510.219C513.344 72.5 515.75 72.0625 517.438 71.1875C519.156 70.2812 520.344 69.1094 521 67.6719C521.688 66.2031 522.031 64.6094 522.031 62.8906C522.031 60.8906 521.578 59.1719 520.672 57.7344C519.797 56.2656 518.391 55.125 516.453 54.3125C514.547 53.5 512.016 53.0938 508.859 53.0938H495.781V72.5ZM495.781 42.4531H510.125C513.156 42.4531 515.547 41.875 517.297 40.7188C519.047 39.5312 519.922 37.6094 519.922 34.9531C519.922 32.7344 519.219 30.9375 517.812 29.5625C516.406 28.1875 513.922 27.5 510.359 27.5H495.781V42.4531Z" fill="#F5F4EE"/>
<path d="M573.594 84.9688C568.562 84.9688 563.922 84.2031 559.672 82.6719C555.453 81.1406 551.938 78.7969 549.125 75.6406C546.344 72.4844 544.562 68.4844 543.781 63.6406L558.875 60.5938C559.125 64.8438 560.453 68.0156 562.859 70.1094C565.297 72.1719 568.766 73.2031 573.266 73.2031C576.234 73.2031 578.594 72.8125 580.344 72.0312C582.125 71.25 583.406 70.2188 584.188 68.9375C584.969 67.625 585.359 66.1875 585.359 64.625C585.359 62.125 584.422 60.2188 582.547 58.9062C580.703 57.5625 578.281 56.5938 575.281 56L568.484 54.6875C566.141 54.25 563.719 53.6562 561.219 52.9062C558.719 52.125 556.391 51.0312 554.234 49.625C552.109 48.1875 550.375 46.3281 549.031 44.0469C547.719 41.7344 547.062 38.8438 547.062 35.375C547.062 30.9688 548.188 27.25 550.438 24.2188C552.719 21.1875 555.797 18.9062 559.672 17.375C563.578 15.8125 568 15.0312 572.938 15.0312C577.75 15.0312 582.062 15.7656 585.875 17.2344C589.719 18.7031 592.891 20.8438 595.391 23.6562C597.891 26.4375 599.547 29.8438 600.359 33.875L585.547 36.9219C585.266 34.8594 584.688 33.0781 583.812 31.5781C582.969 30.0469 581.719 28.875 580.062 28.0625C578.406 27.2188 576.203 26.7969 573.453 26.7969C571.016 26.7969 568.953 27.125 567.266 27.7812C565.609 28.4375 564.344 29.3438 563.469 30.5C562.625 31.625 562.203 32.9531 562.203 34.4844C562.203 36.7031 563.266 38.4219 565.391 39.6406C567.547 40.8281 570.5 41.7812 574.25 42.5L581.234 43.9062C584.484 44.5312 587.609 45.5781 590.609 47.0469C593.609 48.4844 596.062 50.5469 597.969 53.2344C599.875 55.9219 600.828 59.4375 600.828 63.7812C600.828 68.3438 599.672 72.2031 597.359 75.3594C595.047 78.5156 591.844 80.9062 587.75 82.5312C583.688 84.1562 578.969 84.9688 573.594 84.9688Z" fill="#F5F4EE"/>
</svg>
