<svg width="282" height="61" viewBox="0 0 282 61" fill="none" xmlns="http://www.w3.org/2000/svg">
<path d="M34.203 61L29.278 49.4284C34.0217 47.6761 38.4633 45.3195 42.5725 42.5701L34.203 61ZM11.5722 31.7236L0 26.7989L18.431 18.4299C15.6814 22.5389 13.3247 26.9802 11.5722 31.7236ZM52.6037 6.04259C53.4498 6.04259 54.2051 6.0426 54.8396 6.19366C55.3533 10.3933 54.7792 19.0342 44.8688 28.944C39.7323 34.1104 33.5987 38.0683 26.7098 40.6969L20.2136 34.3521C22.9934 27.373 26.9515 21.2397 32.0578 16.1337C40.397 7.79495 47.8298 6.04259 52.6037 6.04259ZM52.6037 0C46.6212 0 37.5568 2.08469 27.7673 11.8737C21.1503 18.4903 17.1922 25.7717 14.6239 32.1466C13.7779 34.4126 14.352 36.89 16.0138 38.582L22.4495 44.9871C23.5977 46.1352 25.1386 46.8301 26.74 46.8301C27.4349 46.8301 28.1601 46.6488 28.855 46.3769C35.321 43.8995 42.512 39.8509 49.1291 33.2343C66.2306 16.1337 59.8251 1.17831 59.8251 1.17831C59.8251 1.17831 57.0755 0 52.6037 0ZM38.4633 22.5389C36.1065 20.1823 36.1065 16.3452 38.4633 13.9886C40.82 11.632 44.6573 11.632 47.014 13.9886C49.3406 16.3452 49.3708 20.1823 47.014 22.5389C44.6573 24.8955 40.82 24.8955 38.4633 22.5389ZM13.3851 60.4259L24.3832 49.4284C23.3559 49.1565 22.3589 48.7033 21.4524 48.0688L9.12483 60.4259H13.3851ZM0.574079 60.4259H4.83435L19.2467 46.0446L14.9563 41.7845L0.574079 56.1659V60.4259ZM0.574079 51.8757L12.9319 39.5488C12.2974 38.6424 11.8442 37.6756 11.5722 36.6181L0.574079 47.6157V51.8757Z" fill="url(#paint0_linear_4_331)"/>
<path d="M98.744 16.82C99.448 17.172 99.848 17.716 99.944 18.452C100.072 19.188 99.896 19.86 99.416 20.468C99.064 20.948 98.6 21.22 98.024 21.284C97.48 21.348 96.936 21.236 96.392 20.948C95.464 20.468 94.488 20.084 93.464 19.796C92.44 19.508 91.352 19.364 90.2 19.364C88.376 19.364 86.728 19.668 85.256 20.276C83.816 20.852 82.568 21.7 81.512 22.82C80.456 23.908 79.64 25.204 79.064 26.708C78.52 28.212 78.248 29.876 78.248 31.7C78.248 33.716 78.552 35.508 79.16 37.076C79.768 38.612 80.6 39.924 81.656 41.012C82.744 42.068 84.008 42.868 85.448 43.412C86.92 43.924 88.504 44.18 90.2 44.18C91.288 44.18 92.344 44.052 93.368 43.796C94.424 43.54 95.416 43.156 96.344 42.644C96.92 42.356 97.48 42.26 98.024 42.356C98.6 42.42 99.064 42.692 99.416 43.172C99.96 43.844 100.152 44.532 99.992 45.236C99.864 45.908 99.464 46.42 98.792 46.772C97.992 47.22 97.112 47.604 96.152 47.924C95.192 48.244 94.216 48.5 93.224 48.692C92.232 48.884 91.224 48.98 90.2 48.98C87.896 48.98 85.72 48.596 83.672 47.828C81.624 47.06 79.8 45.94 78.2 44.468C76.6 42.996 75.336 41.188 74.408 39.044C73.512 36.9 73.064 34.452 73.064 31.7C73.064 29.236 73.48 26.964 74.312 24.884C75.176 22.772 76.376 20.964 77.912 19.46C79.48 17.924 81.304 16.74 83.384 15.908C85.464 15.044 87.736 14.612 90.2 14.612C91.736 14.612 93.224 14.804 94.664 15.188C96.136 15.572 97.496 16.116 98.744 16.82ZM115.724 48.98C113.42 48.98 111.372 48.66 109.58 48.02C107.788 47.38 106.076 46.324 104.444 44.852C104.092 44.596 103.82 44.292 103.628 43.94C103.468 43.556 103.388 43.172 103.388 42.788C103.388 42.18 103.612 41.636 104.06 41.156C104.508 40.676 105.068 40.436 105.74 40.436C106.252 40.436 106.732 40.612 107.18 40.964C108.396 42.084 109.66 42.932 110.972 43.508C112.316 44.084 113.884 44.372 115.676 44.372C116.956 44.372 118.124 44.164 119.18 43.748C120.268 43.332 121.132 42.772 121.772 42.068C122.412 41.364 122.732 40.548 122.732 39.62C122.732 38.468 122.396 37.524 121.724 36.788C121.084 36.02 120.14 35.396 118.892 34.916C117.676 34.404 116.204 33.972 114.476 33.62C112.876 33.332 111.436 32.932 110.156 32.42C108.908 31.908 107.836 31.268 106.94 30.5C106.044 29.7 105.356 28.756 104.876 27.668C104.396 26.58 104.156 25.316 104.156 23.876C104.156 21.924 104.668 20.244 105.692 18.836C106.716 17.428 108.108 16.34 109.868 15.572C111.628 14.804 113.612 14.42 115.82 14.42C117.836 14.42 119.724 14.74 121.484 15.38C123.244 15.988 124.668 16.82 125.756 17.876C126.524 18.548 126.908 19.268 126.908 20.036C126.908 20.612 126.668 21.156 126.188 21.668C125.74 22.148 125.212 22.388 124.604 22.388C124.156 22.388 123.772 22.26 123.452 22.004C122.94 21.46 122.252 20.98 121.388 20.564C120.524 20.116 119.596 19.748 118.604 19.46C117.644 19.172 116.716 19.028 115.82 19.028C114.38 19.028 113.148 19.236 112.124 19.652C111.1 20.036 110.316 20.58 109.772 21.284C109.228 21.956 108.956 22.756 108.956 23.684C108.956 24.772 109.26 25.668 109.868 26.372C110.508 27.076 111.388 27.652 112.508 28.1C113.628 28.516 114.908 28.9 116.348 29.252C118.108 29.636 119.676 30.068 121.052 30.548C122.46 31.028 123.644 31.652 124.604 32.42C125.564 33.156 126.3 34.084 126.812 35.204C127.324 36.324 127.58 37.716 127.58 39.38C127.58 41.3 127.036 42.98 125.948 44.42C124.86 45.86 123.42 46.98 121.628 47.78C119.868 48.58 117.9 48.98 115.724 48.98ZM155.291 14.804C155.931 14.804 156.459 15.044 156.875 15.524C157.323 15.972 157.547 16.468 157.547 17.012C157.547 17.524 157.371 18.02 157.019 18.5L146.939 31.988L144.203 28.196L153.371 15.956C153.915 15.188 154.555 14.804 155.291 14.804ZM133.403 14.756C134.171 14.756 134.827 15.092 135.371 15.764L157.019 44.852C157.371 45.268 157.547 45.748 157.547 46.292C157.547 47.06 157.275 47.652 156.731 48.068C156.187 48.484 155.643 48.692 155.099 48.692C154.331 48.692 153.691 48.356 153.179 47.684L131.483 18.644C131.131 18.196 130.955 17.716 130.955 17.204C130.955 16.5 131.211 15.924 131.723 15.476C132.235 14.996 132.795 14.756 133.403 14.756ZM133.067 48.692C132.459 48.692 131.947 48.484 131.531 48.068C131.115 47.62 130.907 47.124 130.907 46.58C130.907 46.036 131.099 45.492 131.483 44.948L141.659 31.172L144.299 35.06L135.035 47.588C134.523 48.324 133.867 48.692 133.067 48.692ZM195.37 43.796C196.042 43.796 196.602 44.02 197.05 44.468C197.53 44.916 197.77 45.476 197.77 46.148C197.77 46.82 197.53 47.38 197.05 47.828C196.602 48.276 196.042 48.5 195.37 48.5H179.242C178.538 48.5 177.946 48.276 177.466 47.828C177.018 47.348 176.794 46.756 176.794 46.052V17.348C176.794 16.644 177.034 16.068 177.514 15.62C177.994 15.14 178.618 14.9 179.386 14.9C180.026 14.9 180.586 15.14 181.066 15.62C181.578 16.068 181.834 16.644 181.834 17.348V44.612L180.826 43.796H195.37ZM223.439 22.868C224.143 22.868 224.719 23.108 225.167 23.588C225.615 24.036 225.839 24.612 225.839 25.316V46.052C225.839 46.756 225.615 47.348 225.167 47.828C224.719 48.276 224.143 48.5 223.439 48.5C222.767 48.5 222.191 48.276 221.711 47.828C221.263 47.348 221.039 46.756 221.039 46.052V42.596L222.047 42.74C222.047 43.316 221.807 43.956 221.327 44.66C220.879 45.364 220.255 46.052 219.455 46.724C218.655 47.364 217.711 47.908 216.623 48.356C215.535 48.772 214.367 48.98 213.119 48.98C210.911 48.98 208.927 48.42 207.167 47.3C205.407 46.148 204.015 44.58 202.991 42.596C201.967 40.612 201.455 38.356 201.455 35.828C201.455 33.236 201.967 30.964 202.991 29.012C204.015 27.028 205.391 25.476 207.119 24.356C208.879 23.236 210.831 22.676 212.975 22.676C214.351 22.676 215.615 22.9 216.767 23.348C217.951 23.796 218.975 24.372 219.839 25.076C220.703 25.78 221.359 26.532 221.807 27.332C222.287 28.1 222.527 28.836 222.527 29.54L221.039 29.684V25.316C221.039 24.644 221.263 24.068 221.711 23.588C222.191 23.108 222.767 22.868 223.439 22.868ZM213.647 44.564C215.151 44.564 216.479 44.18 217.631 43.412C218.783 42.644 219.679 41.604 220.319 40.292C220.959 38.948 221.279 37.46 221.279 35.828C221.279 34.164 220.959 32.676 220.319 31.364C219.679 30.052 218.783 29.012 217.631 28.244C216.479 27.476 215.151 27.092 213.647 27.092C212.175 27.092 210.863 27.476 209.711 28.244C208.591 29.012 207.695 30.052 207.023 31.364C206.383 32.676 206.063 34.164 206.063 35.828C206.063 37.46 206.383 38.948 207.023 40.292C207.695 41.604 208.591 42.644 209.711 43.412C210.863 44.18 212.175 44.564 213.647 44.564ZM245.283 22.676C247.523 22.676 249.507 23.236 251.235 24.356C252.995 25.476 254.387 27.028 255.411 29.012C256.435 30.964 256.947 33.22 256.947 35.78C256.947 38.34 256.435 40.612 255.411 42.596C254.387 44.58 253.011 46.148 251.283 47.3C249.555 48.42 247.603 48.98 245.427 48.98C244.211 48.98 243.059 48.788 241.971 48.404C240.883 47.988 239.923 47.476 239.091 46.868C238.259 46.228 237.571 45.556 237.027 44.852C236.515 44.148 236.195 43.492 236.067 42.884L237.363 42.26V46.436C237.363 47.108 237.123 47.684 236.643 48.164C236.195 48.612 235.635 48.836 234.963 48.836C234.259 48.836 233.683 48.612 233.235 48.164C232.787 47.716 232.563 47.14 232.563 46.436V15.428C232.563 14.724 232.787 14.148 233.235 13.7C233.683 13.22 234.259 12.98 234.963 12.98C235.635 12.98 236.195 13.22 236.643 13.7C237.123 14.148 237.363 14.724 237.363 15.428V28.916L236.595 28.484C236.691 27.876 236.995 27.252 237.507 26.612C238.019 25.94 238.659 25.3 239.427 24.692C240.227 24.084 241.123 23.604 242.115 23.252C243.139 22.868 244.195 22.676 245.283 22.676ZM244.755 27.092C243.219 27.092 241.875 27.476 240.723 28.244C239.603 29.012 238.723 30.052 238.083 31.364C237.443 32.644 237.123 34.116 237.123 35.78C237.123 37.444 237.443 38.948 238.083 40.292C238.723 41.604 239.603 42.644 240.723 43.412C241.875 44.18 243.219 44.564 244.755 44.564C246.259 44.564 247.571 44.18 248.691 43.412C249.811 42.644 250.691 41.588 251.331 40.244C252.003 38.9 252.339 37.412 252.339 35.78C252.339 34.116 252.003 32.644 251.331 31.364C250.691 30.052 249.811 29.012 248.691 28.244C247.571 27.476 246.259 27.092 244.755 27.092ZM260.888 44.564C260.6 44.116 260.472 43.604 260.504 43.028C260.536 42.42 260.872 41.908 261.512 41.492C261.96 41.204 262.424 41.092 262.904 41.156C263.416 41.188 263.896 41.428 264.344 41.876C265.24 42.868 266.232 43.652 267.32 44.228C268.44 44.804 269.784 45.092 271.352 45.092C271.992 45.06 272.648 44.964 273.32 44.804C273.992 44.612 274.568 44.292 275.048 43.844C275.528 43.364 275.768 42.676 275.768 41.78C275.768 40.98 275.512 40.34 275 39.86C274.488 39.38 273.816 38.996 272.984 38.708C272.152 38.388 271.256 38.1 270.296 37.844C269.272 37.556 268.232 37.236 267.176 36.884C266.152 36.532 265.224 36.084 264.392 35.54C263.56 34.964 262.872 34.228 262.328 33.332C261.816 32.436 261.56 31.332 261.56 30.02C261.56 28.516 261.976 27.22 262.808 26.132C263.672 25.044 264.776 24.196 266.12 23.588C267.496 22.98 268.984 22.676 270.584 22.676C271.512 22.676 272.488 22.804 273.512 23.06C274.536 23.284 275.528 23.652 276.488 24.164C277.448 24.676 278.28 25.348 278.984 26.18C279.304 26.596 279.48 27.092 279.512 27.668C279.576 28.244 279.32 28.756 278.744 29.204C278.36 29.524 277.896 29.668 277.352 29.636C276.808 29.604 276.36 29.428 276.008 29.108C275.4 28.34 274.616 27.748 273.656 27.332C272.696 26.884 271.608 26.66 270.392 26.66C269.784 26.66 269.144 26.756 268.472 26.948C267.832 27.108 267.288 27.412 266.84 27.86C266.392 28.308 266.168 28.964 266.168 29.828C266.168 30.628 266.424 31.268 266.936 31.748C267.48 32.228 268.184 32.628 269.048 32.948C269.912 33.268 270.856 33.556 271.88 33.812C272.872 34.068 273.848 34.372 274.808 34.724C275.8 35.076 276.68 35.54 277.448 36.116C278.248 36.66 278.888 37.38 279.368 38.276C279.88 39.14 280.136 40.244 280.136 41.588C280.136 43.156 279.672 44.5 278.744 45.62C277.848 46.708 276.696 47.54 275.288 48.116C273.912 48.692 272.456 48.98 270.92 48.98C269.096 48.98 267.272 48.66 265.448 48.02C263.656 47.348 262.136 46.196 260.888 44.564Z" fill="url(#paint1_linear_4_331)"/>
<defs>
<linearGradient id="paint0_linear_4_331" x1="61.0148" y1="-2.78102" x2="0.588883" y2="57.6483" gradientUnits="userSpaceOnUse">
<stop stop-color="#4E0069"/>
<stop offset="1" stop-color="#8F3C00"/>
</linearGradient>
<linearGradient id="paint1_linear_4_331" x1="71" y1="60.5" x2="282.429" y2="2.05185" gradientUnits="userSpaceOnUse">
<stop offset="0.0001" stop-color="#8F3C00"/>
<stop offset="1" stop-color="#4E0069"/>
</linearGradient>
</defs>
</svg>
