<svg width="1024" height="1024" viewBox="0 0 1024 1024" fill="none" xmlns="http://www.w3.org/2000/svg">
<g clip-path="url(#clip0_702_2)">
<path d="M574.162 1024L491.487 829.749C571.119 800.333 645.679 760.773 714.659 714.619L574.162 1024ZM194.262 532.541L0 449.87L309.398 309.381C263.242 378.358 223.68 452.913 194.262 532.541ZM883.053 101.436C897.255 101.436 909.935 101.436 920.587 103.972C929.209 174.471 919.572 319.525 753.207 485.88C666.982 572.608 564.018 639.049 448.374 683.174L339.324 576.666C385.987 459.507 452.432 356.549 538.15 270.835C678.14 130.853 802.914 101.436 883.053 101.436ZM883.053 0C782.625 0 630.462 34.9955 466.126 199.322C355.047 310.395 288.603 432.626 245.49 539.641C231.288 577.68 240.925 619.269 268.821 647.671L376.857 755.194C396.131 774.466 421.999 786.132 448.881 786.132C460.547 786.132 472.72 783.089 484.386 778.524C592.929 736.935 713.645 668.973 824.724 557.9C1111.8 270.835 1004.28 19.7801 1004.28 19.7801C1004.28 19.7801 958.12 0 883.053 0ZM645.679 378.358C606.116 338.797 606.116 274.385 645.679 234.825C685.241 195.265 749.657 195.265 789.219 234.825C828.274 274.385 828.782 338.797 789.219 378.358C749.657 417.918 685.241 417.918 645.679 378.358ZM224.694 1014.36L409.319 829.749C392.074 825.185 375.336 817.577 360.119 806.926L153.178 1014.36H224.694ZM9.637 1014.36H81.1537L323.093 772.945L251.069 701.432L9.637 942.851V1014.36ZM9.637 870.831L217.086 663.901C206.435 648.685 198.826 632.456 194.262 614.704L9.637 799.318V870.831Z" fill="url(#paint0_linear_702_2)"/>
</g>
<defs>
<linearGradient id="paint0_linear_702_2" x1="1024.25" y1="-46.6847" x2="9.88551" y2="967.736" gradientUnits="userSpaceOnUse">
<stop stop-color="#4E0069"/>
<stop offset="1" stop-color="#8F3C00"/>
</linearGradient>
<clipPath id="clip0_702_2">
<rect width="1024" height="1024" fill="white"/>
</clipPath>
</defs>
</svg>
