<svg width="139" height="138" viewBox="0 0 139 138" fill="none" xmlns="http://www.w3.org/2000/svg">
<path d="M68.9129 0.570147C28.98 35.0005 40.7712 71.1603 40.7712 71.1603C27.8009 87.2749 29.7661 97.887 29.7661 97.887L51.6192 95.3716C63.2532 107.792 67.3408 105.591 67.3408 105.591C77.5599 107.163 85.1062 95.3716 85.1062 95.3716L108.531 98.6731C108.138 79.4141 96.583 70.5314 96.583 70.5314C107.588 30.5985 68.9129 0.570147 68.9129 0.570147ZM78.1101 55.36C73.0006 60.4696 64.6681 60.4696 59.5586 55.36C54.4491 50.2505 54.449 41.918 59.5586 36.8085C64.6681 31.699 73.0006 31.699 78.1101 36.8085C83.141 41.9966 83.141 50.3291 78.1101 55.36Z" fill="black"/>
<path d="M75.073 113.749L68.2051 131.057L61.62 113.668L75.073 113.749Z" fill="black"/>
</svg>
